# Filled 25 kg chemical sack, generated by generate_chemical_bag_mesh.py
o chemical_bag
v -0.294291 0.076834 0.000882
v -0.294291 0.075423 0.008885
v -0.294291 0.067920 0.016518
v -0.294291 0.054916 0.023055
v -0.294291 0.038119 0.027833
v -0.294291 0.019409 0.030434
v -0.294291 0.000000 0.030786
v -0.294291 -0.019518 0.029114
v -0.294291 -0.038417 0.025783
v -0.294291 -0.055214 0.021122
v -0.294291 -0.067920 0.015334
v -0.294291 -0.075016 0.008531
v -0.294291 -0.076239 0.000882
v -0.294291 -0.072434 -0.007239
v -0.294291 -0.064646 -0.015195
v -0.294291 -0.053323 -0.022173
v -0.294291 -0.038417 -0.027392
v -0.294291 -0.020210 -0.030316
v -0.294291 -0.000000 -0.030786
v -0.294291 0.020101 -0.028996
v -0.294291 0.038119 -0.025342
v -0.294291 0.053026 -0.020240
v -0.294291 0.064646 -0.014011
v -0.294291 0.072841 -0.006885
v -0.278033 0.142508 0.001756
v -0.278033 0.139643 0.016457
v -0.278033 0.125388 0.030512
v -0.278033 0.101139 0.042622
v -0.278033 0.070167 0.051551
v -0.278033 0.035788 0.056477
v -0.278033 0.000000 0.057198
v -0.278033 -0.036186 0.054094
v -0.278033 -0.071254 0.047852
v -0.278033 -0.102226 0.039134
v -0.278033 -0.125388 0.028376
v -0.278033 -0.138158 0.015819
v -0.278033 -0.140334 0.001756
v -0.278033 -0.133562 -0.013181
v -0.278033 -0.119561 -0.027878
v -0.278033 -0.098861 -0.040866
v -0.278033 -0.071254 -0.050673
v -0.278033 -0.037417 -0.056241
v -0.278033 -0.000000 -0.057198
v -0.278033 0.037019 -0.053859
v -0.278033 0.070167 -0.046974
v -0.278033 0.097774 -0.037378
v -0.278033 0.119561 -0.025742
v -0.278033 0.135047 -0.012542
v -0.253701 0.186863 0.002613
v -0.253701 0.182720 0.021694
v -0.253701 0.163590 0.039950
v -0.253701 0.131673 0.055757
v -0.253701 0.091344 0.067510
v -0.253701 0.046687 0.074081
v -0.253701 0.000000 0.075129
v -0.253701 -0.047451 0.071091
v -0.253701 -0.093431 0.062868
v -0.253701 -0.133760 0.051380
v -0.253701 -0.163590 0.037270
v -0.253701 -0.179869 0.020893
v -0.253701 -0.182689 0.002613
v -0.253701 -0.174240 -0.016819
v -0.253701 -0.156452 -0.036031
v -0.253701 -0.129639 -0.053145
v -0.253701 -0.093431 -0.066204
v -0.253701 -0.048960 -0.073731
v -0.253701 -0.000000 -0.075129
v -0.253701 0.048196 -0.070741
v -0.253701 0.091344 -0.061561
v -0.253701 0.127552 -0.048768
v -0.253701 0.156452 -0.033351
v -0.253701 0.177090 -0.016018
v -0.225000 0.202925 0.003444
v -0.225000 0.197953 0.023941
v -0.225000 0.176717 0.043520
v -0.225000 0.141986 0.060525
v -0.225000 0.098537 0.073260
v -0.225000 0.050486 0.080474
v -0.225000 0.000000 0.081726
v -0.225000 -0.051557 0.077423
v -0.225000 -0.101463 0.068521
v -0.225000 -0.144912 0.056057
v -0.225000 -0.176717 0.040784
v -0.225000 -0.193957 0.023123
v -0.225000 -0.197075 0.003444
v -0.225000 -0.188418 -0.017514
v -0.225000 -0.169694 -0.038353
v -0.225000 -0.140857 -0.057080
v -0.225000 -0.101463 -0.071538
v -0.225000 -0.053041 -0.080013
v -0.225000 -0.000000 -0.081726
v -0.225000 0.051970 -0.076961
v -0.225000 0.098537 -0.066799
v -0.225000 0.137931 -0.052613
v -0.225000 0.169694 -0.035617
v -0.225000 0.192414 -0.016696
v -0.206250 0.203521 0.004243
v -0.206250 0.198015 0.024570
v -0.206250 0.176280 0.043920
v -0.206250 0.141436 0.060754
v -0.206250 0.098240 0.073444
v -0.206250 0.050470 0.080730
v -0.206250 0.000000 0.082106
v -0.206250 -0.051758 0.077910
v -0.206250 -0.101760 0.069065
v -0.206250 -0.144957 0.056625
v -0.206250 -0.176280 0.041391
v -0.206250 -0.193205 0.023814
v -0.206250 -0.196479 0.004243
v -0.206250 -0.188356 -0.016653
v -0.206250 -0.170131 -0.037556
v -0.206250 -0.141407 -0.056512
v -0.206250 -0.101760 -0.071323
v -0.206250 -0.053058 -0.080162
v -0.206250 -0.000000 -0.082106
v -0.206250 0.051769 -0.077342
v -0.206250 0.098240 -0.066944
v -0.206250 0.137886 -0.052383
v -0.206250 0.170131 -0.035027
v -0.206250 0.193165 -0.015897
v -0.187500 0.204030 0.005000
v -0.187500 0.197959 0.025162
v -0.187500 0.175768 0.044277
v -0.187500 0.140886 0.060931
v -0.187500 0.097985 0.073570
v -0.187500 0.050485 0.080934
v -0.187500 0.000000 0.082454
v -0.187500 -0.051960 0.078390
v -0.187500 -0.102015 0.069619
v -0.187500 -0.144916 0.057206
v -0.187500 -0.175768 0.041996
v -0.187500 -0.192453 0.024480
v -0.187500 -0.195970 0.005000
v -0.187500 -0.188411 -0.015831
v -0.187500 -0.170642 -0.036777
v -0.187500 -0.141957 -0.055931
v -0.187500 -0.102015 -0.071070
v -0.187500 -0.053043 -0.080264
v -0.187500 -0.000000 -0.082454
v -0.187500 0.051568 -0.077720
v -0.187500 0.097985 -0.067119
v -0.187500 0.137927 -0.052206
v -0.187500 0.170642 -0.034496
v -0.187500 0.193917 -0.015149
v -0.168750 0.204442 0.005710
v -0.168750 0.197787 0.025712
v -0.168750 0.175193 0.044591
v -0.168750 0.140348 0.061055
v -0.168750 0.097779 0.073637
v -0.168750 0.050531 0.081082
v -0.168750 0.000000 0.082763
v -0.168750 -0.052157 0.078853
v -0.168750 -0.102221 0.070175
v -0.168750 -0.144790 0.057792
v -0.168750 -0.175193 0.042592
v -0.168750 -0.191719 0.025115
v -0.168750 -0.195558 0.005710
v -0.168750 -0.188583 -0.015058
v -0.168750 -0.171217 -0.036026
v -0.168750 -0.142494 -0.055345
v -0.168750 -0.102221 -0.070782
v -0.168750 -0.052997 -0.080318
v -0.168750 -0.000000 -0.082763
v -0.168750 0.051371 -0.078089
v -0.168750 0.097779 -0.067320
v -0.168750 0.138053 -0.052082
v -0.168750 0.171217 -0.034028
v -0.168750 0.194651 -0.014460
v -0.150000 0.204745 0.006364
v -0.150000 0.197503 0.026216
v -0.150000 0.174570 0.044858
v -0.150000 0.139837 0.061126
v -0.150000 0.097628 0.073644
v -0.150000 0.050607 0.081174
v -0.150000 0.000000 0.083029
v -0.150000 -0.052344 0.079295
v -0.150000 -0.102372 0.070726
v -0.150000 -0.144582 0.058375
v -0.150000 -0.174570 0.043173
v -0.150000 -0.191021 0.025712
v -0.150000 -0.195255 0.006364
v -0.150000 -0.188867 -0.014341
v -0.150000 -0.171840 -0.035312
v -0.150000 -0.143006 -0.054762
v -0.150000 -0.102372 -0.070462
v -0.150000 -0.052921 -0.080321
v -0.150000 -0.000000 -0.083029
v -0.150000 0.051184 -0.078442
v -0.150000 0.097628 -0.067544
v -0.150000 0.138261 -0.052011
v -0.150000 0.171840 -0.033627
v -0.150000 0.195349 -0.013837
v -0.131250 0.204932 0.006957
v -0.131250 0.197114 0.026669
v -0.131250 0.173914 0.045078
v -0.131250 0.139365 0.061145
v -0.131250 0.097534 0.073592
v -0.131250 0.050711 0.081207
v -0.131250 0.000000 0.083248
v -0.131250 -0.052517 0.079708
v -0.131250 -0.102466 0.071264
v -0.131250 -0.144297 0.058949
v -0.131250 -0.173914 0.043734
v -0.131250 -0.190376 0.026268
v -0.131250 -0.195068 0.006957
v -0.131250 -0.189257 -0.013687
v -0.131250 -0.172496 -0.034642
v -0.131250 -0.143478 -0.054188
v -0.131250 -0.102466 -0.070113
v -0.131250 -0.052816 -0.080275
v -0.131250 -0.000000 -0.083248
v -0.131250 0.051011 -0.078775
v -0.131250 0.097534 -0.067785
v -0.131250 0.138546 -0.051992
v -0.131250 0.172496 -0.033298
v -0.131250 0.195995 -0.013286
v -0.112500 0.205000 0.007483
v -0.112500 0.196628 0.027069
v -0.112500 0.173241 0.045250
v -0.112500 0.138942 0.061113
v -0.112500 0.097500 0.073484
v -0.112500 0.050841 0.081181
v -0.112500 0.000000 0.083416
v -0.112500 -0.052671 0.080085
v -0.112500 -0.102500 0.071781
v -0.112500 -0.143942 0.059507
v -0.112500 -0.173241 0.044267
v -0.112500 -0.189799 0.026775
v -0.112500 -0.195000 0.007483
v -0.112500 -0.189742 -0.013105
v -0.112500 -0.173169 -0.034025
v -0.112500 -0.143901 -0.053630
v -0.112500 -0.102500 -0.069742
v -0.112500 -0.052686 -0.080179
v -0.112500 -0.000000 -0.083416
v -0.112500 0.050856 -0.079082
v -0.112500 0.097500 -0.068039
v -0.112500 0.138901 -0.052024
v -0.112500 0.173169 -0.033042
v -0.112500 0.196572 -0.012811
v -0.093750 0.204945 0.007937
v -0.093750 0.196059 0.027410
v -0.093750 0.172567 0.045373
v -0.093750 0.138580 0.061032
v -0.093750 0.097527 0.073321
v -0.093750 0.050994 0.081098
v -0.093750 0.000000 0.083531
v -0.093750 -0.052804 0.080421
v -0.093750 -0.102473 0.072270
v -0.093750 -0.143526 0.060042
v -0.093750 -0.172567 0.044767
v -0.093750 -0.189304 0.027229
v -0.093750 -0.195055 0.007937
v -0.093750 -0.190311 -0.012599
v -0.093750 -0.173843 -0.033467
v -0.093750 -0.144263 -0.053095
v -0.093750 -0.102473 -0.069352
v -0.093750 -0.052534 -0.080035
v -0.093750 -0.000000 -0.083531
v -0.093750 0.050724 -0.079358
v -0.093750 0.097527 -0.068301
v -0.093750 0.139317 -0.052105
v -0.093750 0.173843 -0.032861
v -0.093750 0.197066 -0.012418
v -0.075000 0.204770 0.008315
v -0.075000 0.195421 0.027692
v -0.075000 0.171908 0.045449
v -0.075000 0.138287 0.060906
v -0.075000 0.097615 0.073107
v -0.075000 0.051165 0.080958
v -0.075000 0.000000 0.083591
v -0.075000 -0.052911 0.080712
v -0.075000 -0.102385 0.072725
v -0.075000 -0.143058 0.060546
v -0.075000 -0.171908 0.045228
v -0.075000 -0.188904 0.027626
v -0.075000 -0.195230 0.008315
v -0.075000 -0.190950 -0.012176
v -0.075000 -0.174502 -0.032976
v -0.075000 -0.144555 -0.052591
v -0.075000 -0.102385 -0.068949
v -0.075000 -0.052363 -0.079844
v -0.075000 -0.000000 -0.083591
v -0.075000 0.050617 -0.079598
v -0.075000 0.097615 -0.068567
v -0.075000 0.139785 -0.052231
v -0.075000 0.174502 -0.032756
v -0.075000 0.197466 -0.012110
v -0.056250 0.204479 0.008612
v -0.056250 0.194727 0.027910
v -0.056250 0.171281 0.045476
v -0.056250 0.138071 0.060737
v -0.056250 0.097760 0.072845
v -0.056250 0.051351 0.080764
v -0.056250 0.000000 0.083595
v -0.056250 -0.052990 0.080952
v -0.056250 -0.102240 0.073138
v -0.056250 -0.142550 0.061013
v -0.056250 -0.171281 0.045645
v -0.056250 -0.188608 0.027961
v -0.056250 -0.195521 0.008612
v -0.056250 -0.191643 -0.011839
v -0.056250 -0.175129 -0.032558
v -0.056250 -0.144772 -0.052124
v -0.056250 -0.102240 -0.068539
v -0.056250 -0.052177 -0.079610
v -0.056250 -0.000000 -0.083595
v -0.056250 0.050537 -0.079798
v -0.056250 0.097760 -0.068832
v -0.056250 0.140293 -0.052400
v -0.056250 0.175129 -0.032726
v -0.056250 0.197762 -0.011889
v -0.037500 0.204079 0.008827
v -0.037500 0.193996 0.028064
v -0.037500 0.170701 0.045457
v -0.037500 0.137936 0.060528
v -0.037500 0.097961 0.072541
v -0.037500 0.051547 0.080519
v -0.037500 0.000000 0.083542
v -0.037500 -0.053040 0.081139
v -0.037500 -0.102039 0.073504
v -0.037500 -0.142015 0.061436
v -0.037500 -0.170701 0.046013
v -0.037500 -0.188424 0.028230
v -0.037500 -0.195921 0.008827
v -0.037500 -0.192374 -0.011593
v -0.037500 -0.175709 -0.032216
v -0.037500 -0.144907 -0.051701
v -0.037500 -0.102039 -0.068128
v -0.037500 -0.051981 -0.079336
v -0.037500 -0.000000 -0.083542
v -0.037500 0.050488 -0.079956
v -0.037500 0.097961 -0.069090
v -0.037500 0.140828 -0.052609
v -0.037500 0.175709 -0.032772
v -0.037500 0.197946 -0.011759
v -0.018750 0.203579 0.008957
v -0.018750 0.193245 0.028153
v -0.018750 0.170182 0.045392
v -0.018750 0.137886 0.060284
v -0.018750 0.098210 0.072200
v -0.018750 0.051748 0.080226
v -0.018750 0.000000 0.083435
v -0.018750 -0.053058 0.081268
v -0.018750 -0.101790 0.073817
v -0.018750 -0.141465 0.061809
v -0.018750 -0.170182 0.046326
v -0.018750 -0.188356 0.028432
v -0.018750 -0.196421 0.008957
v -0.018750 -0.193125 -0.011439
v -0.018750 -0.176229 -0.031957
v -0.018750 -0.144957 -0.051328
v -0.018750 -0.101790 -0.067721
v -0.018750 -0.051780 -0.079026
v -0.018750 -0.000000 -0.083435
v -0.018750 0.050470 -0.080068
v -0.018750 0.098210 -0.069339
v -0.018750 0.141377 -0.052853
v -0.018750 0.176229 -0.032891
v -0.018750 0.198014 -0.011719
v 0.000000 0.202992 0.009000
v 0.000000 0.192493 0.028175
v 0.000000 0.169736 0.045283
v 0.000000 0.137922 0.060009
v 0.000000 0.098504 0.071826
v 0.000000 0.051949 0.079892
v 0.000000 0.000000 0.083273
v 0.000000 -0.053045 0.081339
v 0.000000 -0.101496 0.074073
v 0.000000 -0.140915 0.062128
v 0.000000 -0.169736 0.046580
v 0.000000 -0.188405 0.028563
v 0.000000 -0.197008 0.009000
v 0.000000 -0.193877 -0.011381
v 0.000000 -0.176674 -0.031783
v 0.000000 -0.144920 -0.051009
v 0.000000 -0.101496 -0.067326
v 0.000000 -0.051578 -0.078686
v 0.000000 -0.000000 -0.083273
v 0.000000 0.050483 -0.080133
v 0.000000 0.098504 -0.069573
v 0.000000 0.141928 -0.053128
v 0.000000 0.176674 -0.033080
v 0.000000 0.197965 -0.011769
v 0.018750 0.202333 0.008957
v 0.018750 0.191758 0.028131
v 0.018750 0.169375 0.045132
v 0.018750 0.138044 0.059707
v 0.018750 0.098834 0.071426
v 0.018750 0.052146 0.079520
v 0.018750 0.000000 0.083061
v 0.018750 -0.053000 0.081350
v 0.018750 -0.101166 0.074268
v 0.018750 -0.140376 0.062387
v 0.018750 -0.169375 0.046773
v 0.018750 -0.188571 0.028621
v 0.018750 -0.197667 0.008957
v 0.018750 -0.194613 -0.011418
v 0.018750 -0.177035 -0.031697
v 0.018750 -0.144799 -0.050751
v 0.018750 -0.101166 -0.066947
v 0.018750 -0.051381 -0.078320
v 0.018750 -0.000000 -0.083061
v 0.018750 0.050528 -0.080150
v 0.018750 0.098834 -0.069789
v 0.018750 0.142466 -0.053430
v 0.018750 0.177035 -0.033338
v 0.018750 0.197799 -0.011908
v 0.037500 0.201616 0.008827
v 0.037500 0.191057 0.028021
v 0.037500 0.169107 0.044941
v 0.037500 0.138248 0.059383
v 0.037500 0.099192 0.071006
v 0.037500 0.052334 0.079116
v 0.037500 0.000000 0.082801
v 0.037500 -0.052926 0.081301
v 0.037500 -0.100808 0.074398
v 0.037500 -0.139863 0.062581
v 0.037500 -0.169107 0.046899
v 0.037500 -0.188850 0.028606
v 0.037500 -0.198384 0.008827
v 0.037500 -0.195313 -0.011549
v 0.037500 -0.177303 -0.031700
v 0.037500 -0.144595 -0.050556
v 0.037500 -0.100808 -0.066592
v 0.037500 -0.051194 -0.077934
v 0.037500 -0.000000 -0.082801
v 0.037500 0.050602 -0.080118
v 0.037500 0.099192 -0.069984
v 0.037500 0.142979 -0.053754
v 0.037500 0.177303 -0.033659
v 0.037500 0.197521 -0.012135
v 0.056250 0.200860 0.008612
v 0.056250 0.190408 0.027846
v 0.056250 0.168939 0.044712
v 0.056250 0.138529 0.059041
v 0.056250 0.099570 0.070572
v 0.056250 0.052508 0.078688
v 0.056250 0.000000 0.082497
v 0.056250 -0.052823 0.081192
v 0.056250 -0.100430 0.074461
v 0.056250 -0.139389 0.062708
v 0.056250 -0.168939 0.046958
v 0.056250 -0.189234 0.028517
v 0.056250 -0.199140 0.008612
v 0.056250 -0.195962 -0.011775
v 0.056250 -0.177471 -0.031794
v 0.056250 -0.144314 -0.050429
v 0.056250 -0.100430 -0.066266
v 0.056250 -0.051020 -0.077534
v 0.056250 -0.000000 -0.082497
v 0.056250 0.050705 -0.080038
v 0.056250 0.099570 -0.070155
v 0.056250 0.143454 -0.054096
v 0.056250 0.177471 -0.034039
v 0.056250 0.197137 -0.012446
v 0.075000 0.200083 0.008315
v 0.075000 0.189827 0.027607
v 0.075000 0.168876 0.044449
v 0.075000 0.138880 0.058687
v 0.075000 0.099959 0.070131
v 0.075000 0.052664 0.078240
v 0.075000 0.000000 0.082154
v 0.075000 -0.052694 0.081026
v 0.075000 -0.100041 0.074457
v 0.075000 -0.138963 0.062765
v 0.075000 -0.168876 0.046946
v 0.075000 -0.189714 0.028354
v 0.075000 -0.199917 0.008315
v 0.075000 -0.196543 -0.012091
v 0.075000 -0.177535 -0.031976
v 0.075000 -0.143962 -0.050372
v 0.075000 -0.100041 -0.065973
v 0.075000 -0.050864 -0.077126
v 0.075000 -0.000000 -0.082154
v 0.075000 0.050834 -0.079912
v 0.075000 0.099959 -0.070299
v 0.075000 0.143880 -0.054450
v 0.075000 0.177535 -0.034474
v 0.075000 0.196656 -0.012838
v 0.093750 0.199304 0.007937
v 0.093750 0.189328 0.027307
v 0.093750 0.168917 0.044153
v 0.093750 0.139294 0.058324
v 0.093750 0.100348 0.069689
v 0.093750 0.052797 0.077781
v 0.093750 0.000000 0.081778
v 0.093750 -0.052543 0.080805
v 0.093750 -0.099652 0.074384
v 0.093750 -0.138598 0.062751
v 0.093750 -0.168917 0.046864
v 0.093750 -0.190279 0.028118
v 0.093750 -0.200696 0.007937
v 0.093750 -0.197042 -0.012496
v 0.093750 -0.177493 -0.032247
v 0.093750 -0.143549 -0.050386
v 0.093750 -0.099652 -0.065720
v 0.093750 -0.050730 -0.076718
v 0.093750 -0.000000 -0.081778
v 0.093750 0.050985 -0.079742
v 0.093750 0.100348 -0.070415
v 0.093750 0.144245 -0.054813
v 0.093750 0.177493 -0.034958
v 0.093750 0.196092 -0.013306
v 0.112500 0.198542 0.007483
v 0.112500 0.188923 0.026949
v 0.112500 0.169063 0.043828
v 0.112500 0.139759 0.057957
v 0.112500 0.100729 0.069252
v 0.112500 0.052906 0.077318
v 0.112500 0.000000 0.081374
v 0.112500 -0.052372 0.080532
v 0.112500 -0.099271 0.074243
v 0.112500 -0.138301 0.062663
v 0.112500 -0.169063 0.046710
v 0.112500 -0.190914 0.027810
v 0.112500 -0.201458 0.007483
v 0.112500 -0.197448 -0.012985
v 0.112500 -0.177347 -0.032603
v 0.112500 -0.143084 -0.050474
v 0.112500 -0.099271 -0.065511
v 0.112500 -0.050622 -0.076315
v 0.112500 -0.000000 -0.081374
v 0.112500 0.051155 -0.079529
v 0.112500 0.100729 -0.070502
v 0.112500 0.144542 -0.055180
v 0.112500 0.177347 -0.035485
v 0.112500 0.195456 -0.013846
v 0.131250 0.197815 0.006957
v 0.131250 0.188621 0.026535
v 0.131250 0.169310 0.043477
v 0.131250 0.140265 0.057591
v 0.131250 0.101092 0.068827
v 0.131250 0.052987 0.076856
v 0.131250 0.000000 0.080948
v 0.131250 -0.052187 0.080211
v 0.131250 -0.098908 0.074037
v 0.131250 -0.138080 0.062503
v 0.131250 -0.169310 0.046484
v 0.131250 -0.191605 0.027433
v 0.131250 -0.202185 0.006957
v 0.131250 -0.197749 -0.013552
v 0.131250 -0.177100 -0.033041
v 0.131250 -0.142578 -0.050634
v 0.131250 -0.098908 -0.065349
v 0.131250 -0.050541 -0.075924
v 0.131250 -0.000000 -0.080948
v 0.131250 0.051341 -0.079279
v 0.131250 0.101092 -0.070558
v 0.131250 0.144762 -0.055546
v 0.131250 0.177100 -0.036049
v 0.131250 0.194765 -0.014451
v 0.150000 0.197142 0.006364
v 0.150000 0.188431 0.026068
v 0.150000 0.169652 0.043103
v 0.150000 0.140799 0.057230
v 0.150000 0.101429 0.068420
v 0.150000 0.053038 0.076404
v 0.150000 0.000000 0.080508
v 0.150000 -0.051992 0.079847
v 0.150000 -0.098571 0.073766
v 0.150000 -0.137941 0.062271
v 0.150000 -0.169652 0.046189
v 0.150000 -0.192335 0.026991
v 0.150000 -0.202858 0.006364
v 0.150000 -0.197939 -0.014193
v 0.150000 -0.176758 -0.033557
v 0.150000 -0.142044 -0.050866
v 0.150000 -0.098571 -0.065238
v 0.150000 -0.050490 -0.075551
v 0.150000 -0.000000 -0.080508
v 0.150000 0.051536 -0.078994
v 0.150000 0.101429 -0.070584
v 0.150000 0.144902 -0.055907
v 0.150000 0.176758 -0.036643
v 0.150000 0.194036 -0.015115
v 0.168750 0.196539 0.005710
v 0.168750 0.188357 0.025553
v 0.168750 0.170080 0.042709
v 0.168750 0.141348 0.056878
v 0.168750 0.101731 0.068036
v 0.168750 0.053058 0.075968
v 0.168750 0.000000 0.080060
v 0.168750 -0.051791 0.079445
v 0.168750 -0.098269 0.073435
v 0.168750 -0.137887 0.061969
v 0.168750 -0.170080 0.045826
v 0.168750 -0.193085 0.026485
v 0.168750 -0.203461 0.005710
v 0.168750 -0.198014 -0.014899
v 0.168750 -0.176330 -0.034144
v 0.168750 -0.141495 -0.051169
v 0.168750 -0.098269 -0.065181
v 0.168750 -0.050470 -0.075203
v 0.168750 -0.000000 -0.080060
v 0.168750 0.051737 -0.078680
v 0.168750 0.101731 -0.070580
v 0.168750 0.144956 -0.056259
v 0.168750 0.176330 -0.037262
v 0.168750 0.193285 -0.015831
v 0.187500 0.196019 0.005000
v 0.187500 0.188400 0.024995
v 0.187500 0.170585 0.042298
v 0.187500 0.141899 0.056538
v 0.187500 0.101990 0.067679
v 0.187500 0.053046 0.075555
v 0.187500 0.000000 0.079610
v 0.187500 -0.051589 0.079012
v 0.187500 -0.098010 0.073048
v 0.187500 -0.137918 0.061599
v 0.187500 -0.170585 0.045397
v 0.187500 -0.193838 0.025921
v 0.187500 -0.203981 0.005000
v 0.187500 -0.197971 -0.015665
v 0.187500 -0.175825 -0.034798
v 0.187500 -0.140944 -0.051538
v 0.187500 -0.098010 -0.065179
v 0.187500 -0.050482 -0.074885
v 0.187500 -0.000000 -0.079610
v 0.187500 0.051939 -0.078342
v 0.187500 0.101990 -0.070547
v 0.187500 0.144924 -0.056599
v 0.187500 0.175825 -0.037897
v 0.187500 0.192533 -0.016591
v 0.206250 0.195597 0.004243
v 0.206250 0.188560 0.024397
v 0.206250 0.171153 0.041874
v 0.206250 0.142438 0.056213
v 0.206250 0.102202 0.067355
v 0.206250 0.053003 0.075170
v 0.206250 0.000000 0.079167
v 0.206250 -0.051392 0.078553
v 0.206250 -0.097798 0.072609
v 0.206250 -0.138035 0.061166
v 0.206250 -0.171153 0.044907
v 0.206250 -0.194574 0.025304
v 0.206250 -0.204403 0.004243
v 0.206250 -0.197811 -0.016481
v 0.206250 -0.175257 -0.035510
v 0.206250 -0.140404 -0.051971
v 0.206250 -0.097798 -0.065234
v 0.206250 -0.050524 -0.074602
v 0.206250 -0.000000 -0.079167
v 0.206250 0.052136 -0.077985
v 0.206250 0.102202 -0.070488
v 0.206250 0.144807 -0.056924
v 0.206250 0.175257 -0.038543
v 0.206250 0.191796 -0.017387
v 0.225000 0.195282 0.003444
v 0.225000 0.188832 0.023766
v 0.225000 0.171772 0.041439
v 0.225000 0.142953 0.055907
v 0.225000 0.102359 0.067068
v 0.225000 0.052930 0.074820
v 0.225000 0.000000 0.078737
v 0.225000 -0.051203 0.078077
v 0.225000 -0.097641 0.072125
v 0.225000 -0.138235 0.060674
v 0.225000 -0.171772 0.044359
v 0.225000 -0.195277 0.024638
v 0.225000 -0.204718 0.003444
v 0.225000 -0.197538 -0.017339
v 0.225000 -0.174638 -0.036273
v 0.225000 -0.139890 -0.052463
v 0.225000 -0.097641 -0.065346
v 0.225000 -0.050597 -0.074359
v 0.225000 -0.000000 -0.078737
v 0.225000 0.052324 -0.077615
v 0.225000 0.102359 -0.070403
v 0.225000 0.144608 -0.057230
v 0.225000 0.174638 -0.039192
v 0.225000 0.191093 -0.018211
v 0.253701 0.180232 0.002613
v 0.253701 0.174808 0.021532
v 0.253701 0.159300 0.038026
v 0.253701 0.132512 0.051486
v 0.253701 0.094660 0.061783
v 0.253701 0.048807 0.068852
v 0.253701 0.000000 0.072364
v 0.253701 -0.047144 0.071696
v 0.253701 -0.090116 0.066201
v 0.253701 -0.127968 0.055651
v 0.253701 -0.159300 0.040576
v 0.253701 -0.181015 0.022295
v 0.253701 -0.189320 0.002613
v 0.253701 -0.182152 -0.016657
v 0.253701 -0.160741 -0.034107
v 0.253701 -0.128800 -0.048874
v 0.253701 -0.090116 -0.060477
v 0.253701 -0.046840 -0.068501
v 0.253701 -0.000000 -0.072364
v 0.253701 0.048503 -0.071346
v 0.253701 0.094660 -0.064894
v 0.253701 0.133344 -0.053039
v 0.253701 0.160741 -0.036657
v 0.253701 0.175945 -0.017419
v 0.278033 0.137887 0.001756
v 0.278033 0.134128 0.016335
v 0.278033 0.122398 0.029060
v 0.278033 0.101723 0.039401
v 0.278033 0.072478 0.047232
v 0.278033 0.037265 0.052533
v 0.278033 0.000000 0.055114
v 0.278033 -0.035972 0.054550
v 0.278033 -0.068943 0.050365
v 0.278033 -0.098189 0.042355
v 0.278033 -0.122398 0.030869
v 0.278033 -0.138957 0.016876
v 0.278033 -0.144956 0.001756
v 0.278033 -0.139077 -0.013059
v 0.278033 -0.122551 -0.026427
v 0.278033 -0.098277 -0.037645
v 0.278033 -0.068943 -0.046354
v 0.278033 -0.035940 -0.052297
v 0.278033 -0.000000 -0.055114
v 0.278033 0.037233 -0.054315
v 0.278033 0.072478 -0.049487
v 0.278033 0.101811 -0.040599
v 0.278033 0.122551 -0.028236
v 0.278033 0.134249 -0.013599
v 0.294291 0.074640 0.000882
v 0.294291 0.072804 0.008821
v 0.294291 0.066500 0.015756
v 0.294291 0.055193 0.021365
v 0.294291 0.039217 0.025567
v 0.294291 0.020110 0.028365
v 0.294291 0.000000 0.029692
v 0.294291 -0.019416 0.029353
v 0.294291 -0.037320 0.027102
v 0.294291 -0.053296 0.022813
v 0.294291 -0.066500 0.016643
v 0.294291 -0.075396 0.009086
v 0.294291 -0.078434 0.000882
v 0.294291 -0.075053 -0.007175
v 0.294291 -0.066066 -0.014433
v 0.294291 -0.053046 -0.020483
v 0.294291 -0.037320 -0.025126
v 0.294291 -0.019508 -0.028247
v 0.294291 -0.000000 -0.029692
v 0.294291 0.020202 -0.029235
v 0.294291 0.039217 -0.026661
v 0.294291 0.054943 -0.021930
v 0.294291 0.066066 -0.015319
v 0.294291 0.072462 -0.007440
v -0.300000 0.000000 -0.004000
v 0.300000 0.000000 0.003000
s 1
f 1 2 26 25
f 2 3 27 26
f 3 4 28 27
f 4 5 29 28
f 5 6 30 29
f 6 7 31 30
f 7 8 32 31
f 8 9 33 32
f 9 10 34 33
f 10 11 35 34
f 11 12 36 35
f 12 13 37 36
f 13 14 38 37
f 14 15 39 38
f 15 16 40 39
f 16 17 41 40
f 17 18 42 41
f 18 19 43 42
f 19 20 44 43
f 20 21 45 44
f 21 22 46 45
f 22 23 47 46
f 23 24 48 47
f 24 1 25 48
f 25 26 50 49
f 26 27 51 50
f 27 28 52 51
f 28 29 53 52
f 29 30 54 53
f 30 31 55 54
f 31 32 56 55
f 32 33 57 56
f 33 34 58 57
f 34 35 59 58
f 35 36 60 59
f 36 37 61 60
f 37 38 62 61
f 38 39 63 62
f 39 40 64 63
f 40 41 65 64
f 41 42 66 65
f 42 43 67 66
f 43 44 68 67
f 44 45 69 68
f 45 46 70 69
f 46 47 71 70
f 47 48 72 71
f 48 25 49 72
f 49 50 74 73
f 50 51 75 74
f 51 52 76 75
f 52 53 77 76
f 53 54 78 77
f 54 55 79 78
f 55 56 80 79
f 56 57 81 80
f 57 58 82 81
f 58 59 83 82
f 59 60 84 83
f 60 61 85 84
f 61 62 86 85
f 62 63 87 86
f 63 64 88 87
f 64 65 89 88
f 65 66 90 89
f 66 67 91 90
f 67 68 92 91
f 68 69 93 92
f 69 70 94 93
f 70 71 95 94
f 71 72 96 95
f 72 49 73 96
f 73 74 98 97
f 74 75 99 98
f 75 76 100 99
f 76 77 101 100
f 77 78 102 101
f 78 79 103 102
f 79 80 104 103
f 80 81 105 104
f 81 82 106 105
f 82 83 107 106
f 83 84 108 107
f 84 85 109 108
f 85 86 110 109
f 86 87 111 110
f 87 88 112 111
f 88 89 113 112
f 89 90 114 113
f 90 91 115 114
f 91 92 116 115
f 92 93 117 116
f 93 94 118 117
f 94 95 119 118
f 95 96 120 119
f 96 73 97 120
f 97 98 122 121
f 98 99 123 122
f 99 100 124 123
f 100 101 125 124
f 101 102 126 125
f 102 103 127 126
f 103 104 128 127
f 104 105 129 128
f 105 106 130 129
f 106 107 131 130
f 107 108 132 131
f 108 109 133 132
f 109 110 134 133
f 110 111 135 134
f 111 112 136 135
f 112 113 137 136
f 113 114 138 137
f 114 115 139 138
f 115 116 140 139
f 116 117 141 140
f 117 118 142 141
f 118 119 143 142
f 119 120 144 143
f 120 97 121 144
f 121 122 146 145
f 122 123 147 146
f 123 124 148 147
f 124 125 149 148
f 125 126 150 149
f 126 127 151 150
f 127 128 152 151
f 128 129 153 152
f 129 130 154 153
f 130 131 155 154
f 131 132 156 155
f 132 133 157 156
f 133 134 158 157
f 134 135 159 158
f 135 136 160 159
f 136 137 161 160
f 137 138 162 161
f 138 139 163 162
f 139 140 164 163
f 140 141 165 164
f 141 142 166 165
f 142 143 167 166
f 143 144 168 167
f 144 121 145 168
f 145 146 170 169
f 146 147 171 170
f 147 148 172 171
f 148 149 173 172
f 149 150 174 173
f 150 151 175 174
f 151 152 176 175
f 152 153 177 176
f 153 154 178 177
f 154 155 179 178
f 155 156 180 179
f 156 157 181 180
f 157 158 182 181
f 158 159 183 182
f 159 160 184 183
f 160 161 185 184
f 161 162 186 185
f 162 163 187 186
f 163 164 188 187
f 164 165 189 188
f 165 166 190 189
f 166 167 191 190
f 167 168 192 191
f 168 145 169 192
f 169 170 194 193
f 170 171 195 194
f 171 172 196 195
f 172 173 197 196
f 173 174 198 197
f 174 175 199 198
f 175 176 200 199
f 176 177 201 200
f 177 178 202 201
f 178 179 203 202
f 179 180 204 203
f 180 181 205 204
f 181 182 206 205
f 182 183 207 206
f 183 184 208 207
f 184 185 209 208
f 185 186 210 209
f 186 187 211 210
f 187 188 212 211
f 188 189 213 212
f 189 190 214 213
f 190 191 215 214
f 191 192 216 215
f 192 169 193 216
f 193 194 218 217
f 194 195 219 218
f 195 196 220 219
f 196 197 221 220
f 197 198 222 221
f 198 199 223 222
f 199 200 224 223
f 200 201 225 224
f 201 202 226 225
f 202 203 227 226
f 203 204 228 227
f 204 205 229 228
f 205 206 230 229
f 206 207 231 230
f 207 208 232 231
f 208 209 233 232
f 209 210 234 233
f 210 211 235 234
f 211 212 236 235
f 212 213 237 236
f 213 214 238 237
f 214 215 239 238
f 215 216 240 239
f 216 193 217 240
f 217 218 242 241
f 218 219 243 242
f 219 220 244 243
f 220 221 245 244
f 221 222 246 245
f 222 223 247 246
f 223 224 248 247
f 224 225 249 248
f 225 226 250 249
f 226 227 251 250
f 227 228 252 251
f 228 229 253 252
f 229 230 254 253
f 230 231 255 254
f 231 232 256 255
f 232 233 257 256
f 233 234 258 257
f 234 235 259 258
f 235 236 260 259
f 236 237 261 260
f 237 238 262 261
f 238 239 263 262
f 239 240 264 263
f 240 217 241 264
f 241 242 266 265
f 242 243 267 266
f 243 244 268 267
f 244 245 269 268
f 245 246 270 269
f 246 247 271 270
f 247 248 272 271
f 248 249 273 272
f 249 250 274 273
f 250 251 275 274
f 251 252 276 275
f 252 253 277 276
f 253 254 278 277
f 254 255 279 278
f 255 256 280 279
f 256 257 281 280
f 257 258 282 281
f 258 259 283 282
f 259 260 284 283
f 260 261 285 284
f 261 262 286 285
f 262 263 287 286
f 263 264 288 287
f 264 241 265 288
f 265 266 290 289
f 266 267 291 290
f 267 268 292 291
f 268 269 293 292
f 269 270 294 293
f 270 271 295 294
f 271 272 296 295
f 272 273 297 296
f 273 274 298 297
f 274 275 299 298
f 275 276 300 299
f 276 277 301 300
f 277 278 302 301
f 278 279 303 302
f 279 280 304 303
f 280 281 305 304
f 281 282 306 305
f 282 283 307 306
f 283 284 308 307
f 284 285 309 308
f 285 286 310 309
f 286 287 311 310
f 287 288 312 311
f 288 265 289 312
f 289 290 314 313
f 290 291 315 314
f 291 292 316 315
f 292 293 317 316
f 293 294 318 317
f 294 295 319 318
f 295 296 320 319
f 296 297 321 320
f 297 298 322 321
f 298 299 323 322
f 299 300 324 323
f 300 301 325 324
f 301 302 326 325
f 302 303 327 326
f 303 304 328 327
f 304 305 329 328
f 305 306 330 329
f 306 307 331 330
f 307 308 332 331
f 308 309 333 332
f 309 310 334 333
f 310 311 335 334
f 311 312 336 335
f 312 289 313 336
f 313 314 338 337
f 314 315 339 338
f 315 316 340 339
f 316 317 341 340
f 317 318 342 341
f 318 319 343 342
f 319 320 344 343
f 320 321 345 344
f 321 322 346 345
f 322 323 347 346
f 323 324 348 347
f 324 325 349 348
f 325 326 350 349
f 326 327 351 350
f 327 328 352 351
f 328 329 353 352
f 329 330 354 353
f 330 331 355 354
f 331 332 356 355
f 332 333 357 356
f 333 334 358 357
f 334 335 359 358
f 335 336 360 359
f 336 313 337 360
f 337 338 362 361
f 338 339 363 362
f 339 340 364 363
f 340 341 365 364
f 341 342 366 365
f 342 343 367 366
f 343 344 368 367
f 344 345 369 368
f 345 346 370 369
f 346 347 371 370
f 347 348 372 371
f 348 349 373 372
f 349 350 374 373
f 350 351 375 374
f 351 352 376 375
f 352 353 377 376
f 353 354 378 377
f 354 355 379 378
f 355 356 380 379
f 356 357 381 380
f 357 358 382 381
f 358 359 383 382
f 359 360 384 383
f 360 337 361 384
f 361 362 386 385
f 362 363 387 386
f 363 364 388 387
f 364 365 389 388
f 365 366 390 389
f 366 367 391 390
f 367 368 392 391
f 368 369 393 392
f 369 370 394 393
f 370 371 395 394
f 371 372 396 395
f 372 373 397 396
f 373 374 398 397
f 374 375 399 398
f 375 376 400 399
f 376 377 401 400
f 377 378 402 401
f 378 379 403 402
f 379 380 404 403
f 380 381 405 404
f 381 382 406 405
f 382 383 407 406
f 383 384 408 407
f 384 361 385 408
f 385 386 410 409
f 386 387 411 410
f 387 388 412 411
f 388 389 413 412
f 389 390 414 413
f 390 391 415 414
f 391 392 416 415
f 392 393 417 416
f 393 394 418 417
f 394 395 419 418
f 395 396 420 419
f 396 397 421 420
f 397 398 422 421
f 398 399 423 422
f 399 400 424 423
f 400 401 425 424
f 401 402 426 425
f 402 403 427 426
f 403 404 428 427
f 404 405 429 428
f 405 406 430 429
f 406 407 431 430
f 407 408 432 431
f 408 385 409 432
f 409 410 434 433
f 410 411 435 434
f 411 412 436 435
f 412 413 437 436
f 413 414 438 437
f 414 415 439 438
f 415 416 440 439
f 416 417 441 440
f 417 418 442 441
f 418 419 443 442
f 419 420 444 443
f 420 421 445 444
f 421 422 446 445
f 422 423 447 446
f 423 424 448 447
f 424 425 449 448
f 425 426 450 449
f 426 427 451 450
f 427 428 452 451
f 428 429 453 452
f 429 430 454 453
f 430 431 455 454
f 431 432 456 455
f 432 409 433 456
f 433 434 458 457
f 434 435 459 458
f 435 436 460 459
f 436 437 461 460
f 437 438 462 461
f 438 439 463 462
f 439 440 464 463
f 440 441 465 464
f 441 442 466 465
f 442 443 467 466
f 443 444 468 467
f 444 445 469 468
f 445 446 470 469
f 446 447 471 470
f 447 448 472 471
f 448 449 473 472
f 449 450 474 473
f 450 451 475 474
f 451 452 476 475
f 452 453 477 476
f 453 454 478 477
f 454 455 479 478
f 455 456 480 479
f 456 433 457 480
f 457 458 482 481
f 458 459 483 482
f 459 460 484 483
f 460 461 485 484
f 461 462 486 485
f 462 463 487 486
f 463 464 488 487
f 464 465 489 488
f 465 466 490 489
f 466 467 491 490
f 467 468 492 491
f 468 469 493 492
f 469 470 494 493
f 470 471 495 494
f 471 472 496 495
f 472 473 497 496
f 473 474 498 497
f 474 475 499 498
f 475 476 500 499
f 476 477 501 500
f 477 478 502 501
f 478 479 503 502
f 479 480 504 503
f 480 457 481 504
f 481 482 506 505
f 482 483 507 506
f 483 484 508 507
f 484 485 509 508
f 485 486 510 509
f 486 487 511 510
f 487 488 512 511
f 488 489 513 512
f 489 490 514 513
f 490 491 515 514
f 491 492 516 515
f 492 493 517 516
f 493 494 518 517
f 494 495 519 518
f 495 496 520 519
f 496 497 521 520
f 497 498 522 521
f 498 499 523 522
f 499 500 524 523
f 500 501 525 524
f 501 502 526 525
f 502 503 527 526
f 503 504 528 527
f 504 481 505 528
f 505 506 530 529
f 506 507 531 530
f 507 508 532 531
f 508 509 533 532
f 509 510 534 533
f 510 511 535 534
f 511 512 536 535
f 512 513 537 536
f 513 514 538 537
f 514 515 539 538
f 515 516 540 539
f 516 517 541 540
f 517 518 542 541
f 518 519 543 542
f 519 520 544 543
f 520 521 545 544
f 521 522 546 545
f 522 523 547 546
f 523 524 548 547
f 524 525 549 548
f 525 526 550 549
f 526 527 551 550
f 527 528 552 551
f 528 505 529 552
f 529 530 554 553
f 530 531 555 554
f 531 532 556 555
f 532 533 557 556
f 533 534 558 557
f 534 535 559 558
f 535 536 560 559
f 536 537 561 560
f 537 538 562 561
f 538 539 563 562
f 539 540 564 563
f 540 541 565 564
f 541 542 566 565
f 542 543 567 566
f 543 544 568 567
f 544 545 569 568
f 545 546 570 569
f 546 547 571 570
f 547 548 572 571
f 548 549 573 572
f 549 550 574 573
f 550 551 575 574
f 551 552 576 575
f 552 529 553 576
f 553 554 578 577
f 554 555 579 578
f 555 556 580 579
f 556 557 581 580
f 557 558 582 581
f 558 559 583 582
f 559 560 584 583
f 560 561 585 584
f 561 562 586 585
f 562 563 587 586
f 563 564 588 587
f 564 565 589 588
f 565 566 590 589
f 566 567 591 590
f 567 568 592 591
f 568 569 593 592
f 569 570 594 593
f 570 571 595 594
f 571 572 596 595
f 572 573 597 596
f 573 574 598 597
f 574 575 599 598
f 575 576 600 599
f 576 553 577 600
f 577 578 602 601
f 578 579 603 602
f 579 580 604 603
f 580 581 605 604
f 581 582 606 605
f 582 583 607 606
f 583 584 608 607
f 584 585 609 608
f 585 586 610 609
f 586 587 611 610
f 587 588 612 611
f 588 589 613 612
f 589 590 614 613
f 590 591 615 614
f 591 592 616 615
f 592 593 617 616
f 593 594 618 617
f 594 595 619 618
f 595 596 620 619
f 596 597 621 620
f 597 598 622 621
f 598 599 623 622
f 599 600 624 623
f 600 577 601 624
f 601 602 626 625
f 602 603 627 626
f 603 604 628 627
f 604 605 629 628
f 605 606 630 629
f 606 607 631 630
f 607 608 632 631
f 608 609 633 632
f 609 610 634 633
f 610 611 635 634
f 611 612 636 635
f 612 613 637 636
f 613 614 638 637
f 614 615 639 638
f 615 616 640 639
f 616 617 641 640
f 617 618 642 641
f 618 619 643 642
f 619 620 644 643
f 620 621 645 644
f 621 622 646 645
f 622 623 647 646
f 623 624 648 647
f 624 601 625 648
f 625 626 650 649
f 626 627 651 650
f 627 628 652 651
f 628 629 653 652
f 629 630 654 653
f 630 631 655 654
f 631 632 656 655
f 632 633 657 656
f 633 634 658 657
f 634 635 659 658
f 635 636 660 659
f 636 637 661 660
f 637 638 662 661
f 638 639 663 662
f 639 640 664 663
f 640 641 665 664
f 641 642 666 665
f 642 643 667 666
f 643 644 668 667
f 644 645 669 668
f 645 646 670 669
f 646 647 671 670
f 647 648 672 671
f 648 625 649 672
f 649 650 674 673
f 650 651 675 674
f 651 652 676 675
f 652 653 677 676
f 653 654 678 677
f 654 655 679 678
f 655 656 680 679
f 656 657 681 680
f 657 658 682 681
f 658 659 683 682
f 659 660 684 683
f 660 661 685 684
f 661 662 686 685
f 662 663 687 686
f 663 664 688 687
f 664 665 689 688
f 665 666 690 689
f 666 667 691 690
f 667 668 692 691
f 668 669 693 692
f 669 670 694 693
f 670 671 695 694
f 671 672 696 695
f 672 649 673 696
f 673 674 698 697
f 674 675 699 698
f 675 676 700 699
f 676 677 701 700
f 677 678 702 701
f 678 679 703 702
f 679 680 704 703
f 680 681 705 704
f 681 682 706 705
f 682 683 707 706
f 683 684 708 707
f 684 685 709 708
f 685 686 710 709
f 686 687 711 710
f 687 688 712 711
f 688 689 713 712
f 689 690 714 713
f 690 691 715 714
f 691 692 716 715
f 692 693 717 716
f 693 694 718 717
f 694 695 719 718
f 695 696 720 719
f 696 673 697 720
f 697 698 722 721
f 698 699 723 722
f 699 700 724 723
f 700 701 725 724
f 701 702 726 725
f 702 703 727 726
f 703 704 728 727
f 704 705 729 728
f 705 706 730 729
f 706 707 731 730
f 707 708 732 731
f 708 709 733 732
f 709 710 734 733
f 710 711 735 734
f 711 712 736 735
f 712 713 737 736
f 713 714 738 737
f 714 715 739 738
f 715 716 740 739
f 716 717 741 740
f 717 718 742 741
f 718 719 743 742
f 719 720 744 743
f 720 697 721 744
f 745 2 1
f 746 721 722
f 745 3 2
f 746 722 723
f 745 4 3
f 746 723 724
f 745 5 4
f 746 724 725
f 745 6 5
f 746 725 726
f 745 7 6
f 746 726 727
f 745 8 7
f 746 727 728
f 745 9 8
f 746 728 729
f 745 10 9
f 746 729 730
f 745 11 10
f 746 730 731
f 745 12 11
f 746 731 732
f 745 13 12
f 746 732 733
f 745 14 13
f 746 733 734
f 745 15 14
f 746 734 735
f 745 16 15
f 746 735 736
f 745 17 16
f 746 736 737
f 745 18 17
f 746 737 738
f 745 19 18
f 746 738 739
f 745 20 19
f 746 739 740
f 745 21 20
f 746 740 741
f 745 22 21
f 746 741 742
f 745 23 22
f 746 742 743
f 745 24 23
f 746 743 744
f 745 1 24
f 746 744 721
